PathFileType   4   (X/Y/Z)
DataRate	CameraRate	NumFrames	NumMarkers	Units	OrigDataRate	OrigDataStartFrame	OrigNumFrames
120.0	120.0	9	37	mm	120.0	130	173
Frame#	Time	midhip	hip_r	hip_l	knee_r	knee_l	ankle_r	ankle_l	midasis	asis_r	asis_l	psis_r	psis_l	epicondLat_r	epicondLat_l	epicondMed_r	epicondMed_l	malleolusLat_r	malleolusLat_l	malleolusMedv_r	malleolusMedv_l	neck	subclavicle_r	subclavicle_l	sternalnotch	xyphoidprocess	thighwand_r	thighwand_l	upperleg1_r	upperleg1_l	upperleg2_r	upperleg2_l	shankwand_r	shankwand_l	lowerleg1_r	lowerleg1_l	toe_r	toe_l
 	 	X1	Y1	Z1	X2	Y2	Z2	X3	Y3	Z3	X4	Y4	Z4	X5	Y5	Z5	X6	Y6	Z6	X7	Y7	Z7	X8	Y8	Z8	X9	Y9	Z9	X10	Y10	Z10	X11	Y11	Z11	X12	Y12	Z12	X13	Y13	Z13	X14	Y14	Z14	X15	Y15	Z15	X16	Y16	Z16	X17	Y17	Z17	X18	Y18	Z18	X19	Y19	Z19	X20	Y20	Z20	X21	Y21	Z21	X22	Y22	Z22	X23	Y23	Z23	X24	Y24	Z24	X25	Y25	Z25	X26	Y26	Z26	X27	Y27	Z27	X28	Y28	Z28	X29	Y29	Z29	X30	Y30	Z30	X31	Y31	Z31	X32	Y32	Z32	X33	Y33	Z33	X34	Y34	Z34	X35	Y35	Z35	X36	Y36	Z36	X37	Y37	Z37

	130	1.30833	-936.578	626.613	238.054	-935.434	638.450	293.663	-929.511	639.974	176.377	-835.656	355.983	330.061	-933.583	341.543	209.194	-958.660	91.066	324.083	-970.589	54.568	219.617	-889.056	701.709	238.025	-893.585	700.543	327.700	-884.527	702.874	148.350	-1025.523	717.723	276.400	-1020.398	716.603	192.416	-848.085	357.297	374.331	-933.104	336.290	161.485	-818.851	350.312	287.987	-942.517	346.793	246.877	-968.549	94.941	355.855	-979.017	54.515	188.229	-948.522	93.304	298.322	-975.055	55.351	253.565	-947.967	1034.945	229.012	-861.567	960.053	273.089	-864.930	956.402	183.593	-876.266	972.939	236.051	-847.634	833.842	235.407	-743.961	481.414	325.273	-865.331	412.928	100.611	-833.519	504.572	351.491	-872.834	476.686	175.636	-815.017	419.185	359.439	-882.179	394.866	199.263	-924.915	159.491	428.766	-867.267	152.403	241.285	-898.339	222.768	370.171	-918.651	212.996	216.223	-881.344	60.613	349.854	-887.556	37.263	222.829
	131	1.31667	-931.504	626.064	238.134	-930.776	638.005	294.034	-924.854	639.447	176.747	-827.769	356.686	329.212	-931.040	341.200	209.613	-941.528	87.624	324.239	-970.543	54.501	219.793	-884.718	701.446	238.338	-889.245	700.344	327.999	-880.191	702.549	148.678	-1020.480	716.653	275.510	-1016.048	715.699	192.807	-839.987	357.756	373.547	-930.222	335.926	161.911	-811.193	351.463	286.919	-939.255	346.489	247.396	-951.605	91.298	355.976	-978.829	54.527	188.366	-931.146	89.967	298.406	-974.581	55.108	253.667	-943.374	1034.372	229.402	-857.669	959.247	273.517	-860.431	955.741	184.142	-871.899	972.261	236.549	-843.885	833.048	235.821	-737.681	483.279	324.243	-861.376	412.556	101.327	-827.355	505.354	350.895	-869.201	476.133	176.203	-807.838	420.217	358.531	-878.663	394.496	199.949	-910.370	157.648	428.592	-866.157	151.465	242.048	-885.958	221.497	369.710	-916.896	212.549	216.711	-863.106	59.894	350.234	-887.471	37.220	222.928
	132	1.32500	-926.457	625.505	238.229	-926.080	637.534	294.409	-920.226	638.901	177.118	-820.052	357.306	328.387	-928.509	340.848	210.021	-924.133	84.338	324.305	-970.503	54.441	219.956	-880.363	701.152	238.632	-884.838	700.107	328.286	-875.889	702.196	148.977	-1015.462	715.585	274.758	-1011.748	714.794	193.298	-832.082	358.136	372.778	-927.374	335.551	162.328	-803.703	352.472	286.034	-935.834	346.065	247.966	-934.411	87.783	356.002	-978.647	54.543	188.493	-913.592	86.888	297.801	-974.482	55.032	253.808	-938.782	1033.826	229.859	-853.325	958.498	274.123	-855.996	954.993	184.721	-867.450	971.552	237.112	-839.817	832.263	236.438	-731.520	484.974	323.318	-857.471	412.143	101.998	-821.303	506.076	350.336	-865.523	475.531	176.735	-800.818	421.133	357.750	-875.067	393.978	200.627	-895.741	155.879	428.330	-865.027	150.549	242.806	-873.535	220.282	369.220	-915.226	212.048	217.225	-844.792	59.268	350.489	-887.363	37.176	223.029
	133	1.33333	-921.485	624.942	238.410	-921.342	637.043	294.784	-915.623	638.336	177.486	-812.502	357.823	327.592	-926.029	340.484	210.417	-906.504	81.229	324.286	-970.463	54.388	220.111	-875.984	700.824	238.903	-880.355	699.836	328.559	-871.613	701.813	149.247	-1010.519	714.535	274.255	-1007.495	713.895	193.877	-824.372	358.417	372.030	-924.602	335.162	162.734	-796.339	353.396	285.197	-932.949	346.013	248.141	-916.992	84.415	355.942	-978.476	54.565	188.615	-895.728	84.178	296.839	-974.668	55.101	253.984	-934.208	1033.257	230.367	-848.664	957.806	274.869	-851.465	954.246	185.291	-862.915	970.815	237.738	-835.328	831.533	237.146	-725.471	486.483	322.507	-853.649	411.677	102.616	-815.425	506.709	349.847	-860.917	475.115	177.854	-793.962	421.918	357.037	-871.533	393.420	201.211	-881.038	154.177	428.002	-863.900	149.650	243.528	-861.046	219.100	368.730	-913.469	211.462	217.624	-826.420	58.766	350.619	-887.241	37.130	223.129
	134	1.34167	-916.574	624.372	238.688	-916.555	636.530	295.158	-911.035	637.754	177.849	-805.118	358.218	326.829	-923.629	340.103	210.796	-888.697	78.314	324.193	-970.421	54.338	220.260	-871.570	700.466	239.152	-875.790	699.530	328.814	-867.351	701.401	149.489	-1005.679	713.507	274.064	-1003.268	712.995	194.521	-816.853	358.581	371.306	-921.941	334.755	163.125	-789.355	354.184	284.335	-929.692	345.168	248.607	-899.391	81.210	355.808	-978.320	54.588	188.736	-877.513	81.624	297.014	-974.776	55.168	254.176	-929.638	1032.613	230.872	-843.977	957.036	275.651	-846.786	953.492	185.933	-858.299	970.050	238.422	-830.669	830.767	237.828	-719.532	487.794	321.812	-849.942	411.147	103.173	-809.643	507.154	349.437	-858.061	474.111	177.950	-787.413	422.531	356.351	-868.280	392.795	201.681	-866.276	152.534	427.634	-862.807	148.761	244.184	-848.555	217.919	368.246	-911.630	210.884	217.909	-808.006	58.434	350.627	-887.115	37.083	223.220
	135	1.35000	-911.768	623.797	239.107	-911.713	635.992	295.530	-906.448	637.153	178.209	-797.897	358.478	326.094	-921.316	339.701	211.152	-870.773	75.607	324.037	-970.374	54.289	220.400	-867.116	700.075	239.381	-871.140	699.187	329.053	-863.093	700.963	149.708	-1000.929	712.497	274.175	-999.037	712.087	195.203	-809.523	358.612	370.600	-919.405	334.327	163.492	-782.693	354.794	283.569	-927.095	344.947	248.757	-881.660	78.182	355.614	-978.182	54.609	188.853	-859.561	79.061	297.599	-974.779	55.199	254.358	-924.909	1031.970	231.520	-839.184	956.193	276.443	-842.102	952.684	186.661	-853.616	969.257	239.148	-826.074	829.921	238.523	-713.697	488.895	321.223	-846.369	410.550	103.662	-803.891	507.462	349.062	-854.276	473.438	178.417	-781.106	422.992	355.744	-865.179	392.119	202.082	-851.473	150.956	427.246	-861.768	147.874	244.751	-836.152	216.749	367.726	-910.026	210.427	218.212	-789.571	58.332	350.517	-886.993	37.037	223.298
	136	1.35833	-906.918	623.197	239.517	-906.811	635.428	295.900	-901.859	636.535	178.565	-790.833	358.593	325.379	-919.075	339.280	211.477	-852.798	73.117	323.835	-970.317	54.241	220.527	-862.618	699.653	239.594	-866.404	698.807	329.278	-858.833	700.499	149.910	-996.264	711.505	274.564	-994.777	711.164	195.899	-802.373	358.500	369.908	-916.984	333.883	163.828	-776.047	355.288	282.847	-923.743	344.430	249.025	-863.854	75.347	355.380	-978.055	54.630	188.963	-841.765	76.802	297.470	-974.684	55.210	254.464	-920.060	1031.292	232.260	-834.410	955.332	277.192	-837.472	951.868	187.390	-848.893	968.436	239.894	-821.608	829.051	239.184	-707.965	489.781	320.723	-842.941	409.890	104.078	-798.265	507.643	348.729	-850.471	472.729	178.869	-774.880	423.321	355.187	-861.679	391.467	202.366	-836.645	149.460	426.855	-860.789	146.984	245.221	-823.796	215.588	367.193	-909.788	209.739	218.504	-771.137	58.514	350.293	-886.881	36.991	223.358
	137	1.36667	-902.031	622.565	239.906	-901.853	634.838	296.271	-897.264	635.903	178.920	-783.916	358.560	324.677	-916.876	338.847	211.767	-834.831	70.862	323.605	-970.244	54.198	220.636	-858.074	699.199	239.797	-861.582	698.385	329.492	-854.567	700.012	150.101	-991.670	710.534	275.175	-990.474	710.230	196.593	-795.387	358.244	369.222	-914.652	333.432	164.125	-769.460	355.596	282.233	-918.943	343.247	249.382	-846.024	72.726	355.125	-977.928	54.655	189.060	-824.022	74.871	297.149	-974.630	55.222	254.548	-915.302	1030.486	232.989	-829.700	954.419	277.939	-832.841	951.049	188.109	-844.144	967.587	240.647	-817.051	828.164	239.778	-702.331	490.448	320.290	-839.650	409.177	104.419	-792.765	507.640	348.457	-846.890	471.914	179.280	-768.743	423.483	354.716	-857.436	391.069	202.366	-821.810	148.075	426.472	-859.866	146.092	245.600	-811.487	214.431	366.679	-912.167	208.434	218.762	-752.741	59.027	349.963	-886.778	36.944	223.403
	138	1.37500	-897.157	621.911	240.289	-896.845	634.222	296.642	-892.669	635.262	179.276	-777.134	358.386	323.979	-914.674	338.412	212.018	-816.925	68.866	323.365	-970.149	54.168	220.725	-853.482	698.712	239.995	-856.675	697.916	329.701	-850.290	699.507	150.289	-987.148	709.600	275.966	-986.119	709.298	197.285	-788.543	357.851	368.538	-912.367	332.986	164.382	-763.234	355.714	281.679	-915.263	342.474	249.543	-828.215	70.351	354.870	-977.789	54.692	189.141	-806.553	73.180	296.926	-974.699	55.191	254.638	-910.623	1029.652	233.740	-824.983	953.485	278.694	-828.071	950.243	188.834	-839.362	966.720	241.405	-812.296	827.286	240.348	-696.790	490.899	319.891	-836.483	408.422	104.692	-787.265	507.522	348.210	-843.255	471.101	179.730	-762.803	423.453	354.292	-853.833	390.543	202.410	-806.981	146.837	426.104	-858.991	145.208	245.902	-799.283	213.316	366.145	-908.644	208.424	218.885	-734.430	59.895	349.538	-886.685	36.897	223.435
